<svg xmlns="http://www.w3.org/2000/svg" width="66.144" height="48.104" viewBox="0 0 66.144 48.104"><defs><style>.a{fill:#272727;}.b,.c{fill:#7e7e7e;}.c{font-size:10px;font-family:NotoSerifSC-Regular, Noto Serif SC;}.d{letter-spacing:-0.03em;}</style></defs><g transform="translate(-1017 -1042)"><path class="a" d="M0,0H66.144V48.1H0Z" transform="translate(1017 1042)"/><g transform="translate(1026.196 1047.822)"><g transform="translate(0 0)"><g transform="translate(0 0.993)"><g transform="translate(8.636 0)"><path class="b" d="M117.153,0c-.538,1.524-1.031,2.532-1.568,4.033h1.12c3.809,0,5.96,1.21,5.378,3.361-.9,3.361-8.514,2.689-8.514,2.689L112,14.116h.672l7.394,8.066h6.05l-8.066-8.066s7.8-.471,7.842-6.05c0,0,2.017.067,2.017,0-.022-1.12-.224-3.787-1.837-5.467a7.847,7.847,0,0,0-6-2.6Z" transform="translate(-94.589)"/><path class="b" d="M58,0V22.182h5.153V14.116h3.921l1.568-4.033h-5.49V4.033h7.461L72.25,0Z" transform="translate(-58)"/><path class="b" d="M0,1.013,2.387,0,3.459,23.658l-2.595,1.1Z" transform="matrix(0.921, 0.391, -0.391, 0.921, 17.604, -0.993)"/></g><g transform="translate(2 20.772)"><text class="c" transform="translate(-0.196 12.413)"><tspan x="0" y="0">D</tspan><tspan class="d" y="0">E</tspan><tspan y="0">SINGS</tspan></text></g></g></g></g></g></svg>